# xmcd CD database file
#
# Track frame offsets:
#	150
#	20467
#	41056
#	72884
#	114478
#	150367
#	188899
#	216491
#	237999
#
# Disc length: 3391 seconds
#
# Revision: 0
# Processed by: cddbd v1.5.1PL2 Copyright (c) Steve Scherf et al.
# Submitted via: CDex 1.51
#
DISCID=780d3d09
DTITLE=Victor Lewis - Know it Today, Know it Tomorrow
DYEAR=1992
DGENRE=Jazz
TTITLE0=Know It Today, Know It Tomorrow
TTITLE1=Hey, It's Me You're Talkin' To
TTITLE2=The Loss of a Moment
TTITLE3=Swamp Dog
TTITLE4=For Those Who Didn't Know
TTITLE5=The Truce
TTITLE6=Gotta Start Somewhere
TTITLE7=Between Two Worlds
TTITLE8=If You Only Knew Me
EXTD=YEAR: 1992
EXTT0=
EXTT1=
EXTT2=
EXTT3=
EXTT4=
EXTT5=
EXTT6=
EXTT7=
EXTT8=
PLAYORDER=
